{"title":"Top.Five.2014.DVDScr.XVID.AC3.HQ.Hive-CM8","uid":11679659,"size":1438343360,"categoryP":"video","categoryS":"movies","magnet":"?xt=urn:btih:f5b2da170eb0ba742861e35057defae8da84f131&amp;dn=Top.Five.2014.DVDScr.XVID.AC3.HQ.Hive-CM8&amp;tr=udp%3A%2F%2Ftracker.openbittorrent.com%3A80&amp;tr=udp%3A%2F%2Fopen.demonii.com%3A1337&amp;tr=udp%3A%2F%2Ftracker.coppersurfer.tk%3A6969&amp;tr=udp%3A%2F%2Fexodus.desync.com%3A6969","seeders":0,"leechers":1,"uploader":"TvTeam","files":4,"time":1423024767,"description":" &lt;a href=&quot;https://www.torrenting.com&quot; rel=&quot;nofollow&quot; target=&quot;_NEW&quot;&gt;https://www.torrenting.com&lt;/a&gt;\n\nSign up is OPEN - for the time being. Come and have fun.\n\n---------------------------------------------------------------------\n\n.[center][IMG]http://img661.imageshack.us/img661/6451/vydH46.jpg[/IMG]\n\n\n[color=blue][size=3][b]Top.Five.2014.DVDScr.XVID.AC3.HQ.Hive-CM8[/b][/size][/color]\n\nThx Hive\n\nCM8 Doing It Right The First Time\n\n\nSource: DVDScr\nthx m8 for coming through\n\n\nNotes:\n\nfinally got the last good screener with nice cast innit, quality is very nice too\nGo get it!!\n\nEncode:\n\nremoved all kind of watermarks, fixed rgb, brightness and contrast, added sharpness\ngot very nice\nenjoy\n\nVideo: 720x304 @bitrate 1600 2pass\nAudio: English AC3 2.0 Stereo\nSample: yes included\n\n\n &lt;a href=&quot;\nhttp://www.imdb.com/title/tt2784678/&quot; rel=&quot;nofollow&quot; target=&quot;_NEW&quot;&gt;\nhttp://www.imdb.com/title/tt2784678/&lt;/a&gt;\n\n\nGeneral\nComplete name                  : Top.Five.2014.DVDScr.XVID.AC3.HQ.Hive-CM8.avi\nFormat                         : AVI\nFormat/Info                    : Audio Video Interleave\nFile size                      : 1.33 GiB\nDuration                       : 1h 41mn\nOverall bit rate               : 1 864 Kbps\nWriting application            : Nandub v1.0rc2\nWriting library                : Nandub build 1853/release\n\nVideo\nID                             : 0\nFormat                         : MPEG-4 Visual\nFormat profile                 : Advanced Simple@L5\nFormat settings, BVOP          : 2\nFormat settings, QPel          : Yes\nFormat settings, GMC           : No warppoints\nFormat settings, Matrix        : Default (H.263)\nMuxing mode                    : Packed bitstream\nCodec ID                       : XVID\nCodec ID/Hint                  : XviD\nDuration                       : 1h 41mn\nBit rate                       : 1 596 Kbps\nWidth                          : 720 pixels\nHeight                         : 304 pixels\nDisplay aspect ratio           : 2.35:1\nFrame rate                     : 29.970 fps\nColor space                    : YUV\nChroma subsampling             : 4:2:0\nBit depth                      : 8 bits\nScan type                      : Progressive\nCompression mode               : Lossy\nBits/(Pixel*Frame)             : 0.243\nStream size                    : 1.14 GiB (86%)\nWriting library                : XviD 1.2.1 (UTC 2008-12-04)\n\nAudio\nID                             : 1\nFormat                         : AC-3\nFormat/Info                    : Audio Coding 3\nMode extension                 : CM (complete main)\nFormat settings, Endianness    : Big\nCodec ID                       : 2000\nDuration                       : 1h 41mn\nBit rate mode                  : Constant\nBit rate                       : 256 Kbps\nChannel(s)                     : 2 channels\nChannel positions              : Front: L R\nSampling rate                  : 48.0 KHz\nBit depth                      : 16 bits\nCompression mode               : Lossy\nStream size                    : 187 MiB (14%)\nAlignment                      : Split accross interleaves\nInterleave, duration           : 33 ms (1.00 video frame)\nInterleave, preload duration   : 500 ms\n\n\nPlot:\n\nA comedian tries to make it as a serious actor when his reality-TV star fiance talks him into broadcasting their wedding on her TV show\n\n\nCast:\nChris Rock  \t... \tAndre Allen\nRosario Dawson \t... \tChelsea Brown\nJ.B. Smoove \t... \tSilk\nGabrielle Union \t... \tErica Long\nRomany Malco \t... \tBenny Barnes\nHayley Marie Norman \t... \tTammy\nAnders Holm \t... \tBrad\nCedric the Entertainer \t... \tJazzy Dee\nKarlie Redd \t... \tRhonda\nKevin Barnett \t... \tColumbia Student\nGenevieve Angelson \t... \tColumbia Student\nBen Cole \t        ... \tColumbia Student\nCorey Brown \t... \tColumbia Student\nMaia Wilson \t... \tWoman with Confidence\nTeddy Coluca \t... \tMaurice\n\n\n\n[img]http://img673.imageshack.us/img673/7885/a4ZwfV.png[/img]\n[img]http://img912.imageshack.us/img912/7827/A1U9Jb.png[/img]\n[img]http://img661.imageshack.us/img661/1346/6lVvLG.png[/img]\n[img]http://img538.imageshack.us/img538/3627/c2WwaJ.png[/img]\n[img]http://img661.imageshack.us/img661/7366/kOBajI.png[/img]\n\n\n\n\nGreetz\n\nSugarB \nSiMPLE\nViSiON,SceneLovers,PRESTiGE,SANTi,YanKeeS,COPYxRIGHT,THC,\nLKRG,Kingstoner,MiLLENiUM,FooKaS,ACAB,Unevano,BigVik,Rapeseed,SAFC,\ngoldadvance,KaN1vE,Pinnz,Wayne,SeeN,jtr,Limey,ICONiK,TED\nMr Hive,and most P2P \nGreat Work Guys :D\n\nLOOKING FOR ANYTHING YOU WANT TO LOOK AND SOUND BETTER\n\nCOME FIND US \n&lt;a class=&quot;__cf_email__&quot; href=&quot;/cdn-cgi/l/email-protection&quot; data-cfemail=&quot;0e4d43364e667b7d66636f676220636b&quot;&gt;[email&amp;#160;protected]&lt;/a&gt;&lt;script cf-hash='f9e31' type=&quot;text/javascript&quot;&gt;\n/* &lt;![CDATA[ */!function(){try{var t=&quot;currentScript&quot;in document?document.currentScript:function(){for(var t=document.getElementsByTagName(&quot;script&quot;),e=t.length;e--;)if(t[e].getAttribute(&quot;cf-hash&quot;))return t[e]}();if(t&amp;&amp;t.previousSibling){var e,r,n,i,c=t.previousSibling,a=c.getAttribute(&quot;data-cfemail&quot;);if(a){for(e=&quot;&quot;,r=parseInt(a.substr(0,2),16),n=2;a.length-n;n+=2)i=parseInt(a.substr(n,2),16)^r,e+=String.fromCharCode(i);e=document.createTextNode(e),c.parentNode.replaceChild(e,c)}}}catch(u){}}();/* ]]&gt; */&lt;/script&gt;[/center]","torrent":{"xt":"urn:btih:f5b2da170eb0ba742861e35057defae8da84f131","amp;dn":"Top.Five.2014.DVDScr.XVID.AC3.HQ.Hive-CM8","amp;tr":["udp%3A%2F%2Ftracker.openbittorrent.com%3A80","udp%3A%2F%2Fopen.demonii.com%3A1337","udp%3A%2F%2Ftracker.coppersurfer.tk%3A6969","udp%3A%2F%2Fexodus.desync.com%3A6969"],"infoHash":"f5b2da170eb0ba742861e35057defae8da84f131","infoHashBuffer":{"type":"Buffer","data":[245,178,218,23,14,176,186,116,40,97,227,80,87,222,250,232,218,132,241,49]},"announce":[],"urlList":[]}}